<svg width="228" height="102" viewBox="0 0 228 102" fill="none" xmlns="http://www.w3.org/2000/svg">
<rect width="228" height="102" fill="white"/>
<g clip-path="url(#clip0_9_6)">
<path d="M70.0071 16.0516C70.4254 17.0578 71.2224 17.8866 72.1528 18.4965C73.0832 19.1065 74.1302 19.5089 75.1484 19.7218C76.1666 19.9348 77.1668 19.9587 78.1553 19.7469C79.1438 19.5352 80.3113 19.1734 81.1392 18.4834C81.9671 17.7935 82.2515 16.8982 82.4175 16.0705C82.5835 15.2429 82.7121 14.3057 83.2408 13.1938C83.7694 12.0819 84.2429 10.9512 84.1885 10.1087C84.134 9.26625 83.9294 8.48608 83.5616 7.80597C83.1938 7.12586 82.6975 6.60855 82.1049 6.23443C81.5123 5.86032 80.8233 5.62922 80.0648 5.52737C79.3064 5.42554 78.4782 5.45234 77.607 5.60579C76.7358 5.75926 75.8217 6.0389 74.8925 6.46342C73.9634 6.88795 73.1059 7.41915 72.3565 8.04717C71.6071 8.6752 70.9658 9.40125 70.4931 10.207C70.0204 11.0127 69.7189 11.8994 69.654 12.8189C69.589 13.7384 69.5888 15.0455 70.0071 16.0516V16.0516Z" fill="white"/>
<path d="M75.3468 5.64951C76.1043 5.37387 76.8491 5.18154 77.5685 5.06379C78.5278 4.90675 79.4405 4.88318 80.2777 4.99572C81.1148 5.10827 81.8762 5.35646 82.5339 5.7608C83.1916 6.16517 83.7446 6.72476 84.161 7.46137C84.5774 8.19799 84.8193 9.04529 84.8956 9.96137C84.9718 10.8775 84.6426 12.0279 84.0459 13.2384C83.4491 14.449 83.2942 15.4806 83.1191 16.3787C82.9445 17.2738 82.3686 18.0755 81.308 18.7169C81.1855 18.7904 80.912 18.442 81.0047 18.3586C81.8258 17.6356 82.0163 16.7386 82.2861 15.999C82.4518 15.1937 82.5802 14.2811 83.1004 13.1976C83.6206 12.1141 84.0869 11.0124 84.0372 10.1913C83.9874 9.37023 83.7913 8.60901 83.4349 7.94613C83.0786 7.28321 82.5953 6.78026 82.0175 6.41562C81.4397 6.05098 80.7665 5.82424 80.0248 5.7249C79.283 5.62557 78.4734 5.6517 77.62 5.80123C77.1932 5.87602 76.7544 5.98258 76.3098 6.12115C75.8652 6.25968 75.4133 6.43059 74.9577 6.63715C74.0471 7.05118 73.2086 7.56912 72.4749 8.18174C71.7412 8.79432 71.1128 9.50362 70.6503 10.2889C70.1877 11.0741 69.8927 11.9367 69.8275 12.8318C69.7624 13.7269 69.7578 14.9977 70.1616 15.9767C70.4933 16.7807 71.065 17.4769 71.7795 18.0126C71.9127 18.1123 71.3867 18.6641 70.9816 18.3929C70.2257 17.8863 69.7053 17.1061 69.3698 16.2914C68.9162 15.1898 68.8375 13.8146 68.8995 12.8062C68.9615 11.7978 69.2835 10.8283 69.7939 9.95449C70.3042 9.08067 70.9988 8.30048 71.8144 7.63054C72.6299 6.96062 73.5672 6.39848 74.5853 5.95376C74.8398 5.84262 75.0943 5.74174 75.3466 5.64955L75.3468 5.64951Z" fill="#394655"/>
<path d="M82.1814 11.0441C82.0439 10.8134 81.6991 10.7213 81.1679 10.8477C80.361 11.0398 79.4468 11.9355 78.9458 12.6298C78.6709 13.0106 78.3582 13.3755 78.2032 13.8338C78.1506 13.9893 78.1045 14.1463 78.1487 14.3678C78.333 14.3403 78.4702 14.0984 78.5621 13.9128C78.9243 13.1813 79.4383 12.5379 80.1066 12.0788C80.6689 11.6925 80.737 11.4009 81.3051 11.1748C81.6646 11.0317 81.8749 11.1304 82.1814 11.0441V11.0441Z" fill="#394655"/>
<path d="M79.042 12.4654C78.884 12.2875 79.1854 12.8241 79.3814 12.8989C80.1166 13.1796 80.8234 13.5447 81.5484 13.8529C81.7845 13.9532 81.8485 13.71 81.6484 13.573C81.4452 13.434 81.2348 13.3367 81.015 13.245C80.8091 13.1592 80.5868 13.1193 80.3872 13.0193C80.0036 12.8272 79.7937 12.5823 79.4204 12.3688C79.2924 12.2956 79.1262 12.5601 79.0424 12.4656L79.042 12.4654Z" fill="#394655"/>
<path d="M101.942 80.48C100.151 95.2976 96.9888 109.687 85.8141 119.513C71.7165 131.908 45.8015 133.547 27.47 121.785C22.1687 118.384 17.9473 108.935 17.271 102.825C15.8573 90.0532 21.0834 81.4038 19.8628 69.6177C18.8913 60.2365 14.164 52.4734 14.6119 41.3036C14.9124 33.8084 16.7396 25.0874 22.4008 20.454C29.8173 14.384 38.4767 10.9082 48.2977 11.1475C62.2839 11.4882 77.3668 12.455 89.0978 21.4684C97.4706 27.9016 102.27 38.5263 103.116 49.4309C103.985 60.6318 103.085 71.0249 101.942 80.48V80.48Z" fill="#394655"/>
<path d="M98.4389 94.1752C95.4468 107.802 87.2052 120.503 72.5918 125.531C59.0138 130.203 41.1549 129.107 27.9465 120.251C22.919 116.881 19.0838 107.549 18.5325 101.759C17.3719 89.5732 22.195 80.6431 21.0904 69.3959C20.1684 60.0076 15.7024 53.2042 15.8418 42.0695C15.933 34.7924 17.5705 26.1646 23.1142 21.6505C30.1373 15.9317 38.1801 12.3011 47.4296 12.3478C62.0857 12.4218 78.6107 13.4913 90.2788 24.0575C100.946 33.7177 102.466 50.7278 101.972 64.0078C101.564 74.9609 100.496 84.8051 98.4389 94.1752V94.1752Z" fill="white"/>
<path d="M26.3903 18.22C27.0949 19.4877 27.3342 20.8536 27.2617 22.1316C27.1893 23.4096 26.827 24.5928 26.3005 25.5883C25.7739 26.5839 25.0755 27.4006 24.1543 28.0011C23.2332 28.6016 22.0367 29.2154 20.7567 29.2531C19.4767 29.2909 18.3761 28.6861 17.4116 28.0054C16.4471 27.3247 15.3781 26.4552 13.8545 25.765C12.331 25.0749 10.8383 24.3491 9.99459 23.4179C9.15093 22.4868 8.47306 21.4813 8.00852 20.4272C7.54398 19.373 7.33487 18.3673 7.34127 17.4253C7.34768 16.4833 7.5697 15.6052 7.98199 14.8204C8.39431 14.0356 8.99687 13.3442 9.77721 12.7886C10.5576 12.2329 11.5154 11.8134 12.6543 11.5826C13.7932 11.3518 15.0082 11.3322 16.2488 11.5063C17.4894 11.6803 18.7564 12.048 19.9706 12.5956C21.1848 13.1432 22.3446 13.8714 23.3469 14.767C24.3491 15.6626 25.6857 16.9524 26.3903 18.22V18.22Z" fill="white"/>
<path d="M11.4948 11.1384C10.6465 11.4184 9.90603 11.8057 9.27133 12.2757C8.42503 12.9024 7.7687 13.6758 7.31554 14.5483C6.86238 15.4209 6.61153 16.3906 6.59379 17.4282C6.57604 18.4658 6.79093 19.5689 7.27925 20.722C7.76758 21.8751 8.48586 22.975 9.38551 23.9884C10.2852 25.0017 11.6934 25.8609 13.3551 26.5641C15.0168 27.2674 16.1933 28.1893 17.2272 28.9093C18.2577 29.6268 19.4646 29.8853 20.8618 29.6108C21.0227 29.579 20.8735 29.0416 20.7238 29.0398C19.4143 29.0382 18.3737 28.3406 17.4252 27.8311C16.4822 27.1671 15.4377 26.3185 13.9481 25.6459C12.4586 24.9734 10.9991 24.2656 10.1736 23.3573C9.34815 22.4489 8.68352 21.4675 8.22866 20.4386C7.77369 19.4098 7.57028 18.4285 7.57655 17.5082C7.58277 16.588 7.79892 15.7282 8.20278 14.9606C8.60668 14.1929 9.19612 13.5173 9.96039 12.9727C10.3426 12.7005 10.7702 12.4609 11.2395 12.2615C11.7089 12.062 12.2217 11.9014 12.7789 11.7872C13.8935 11.5598 15.0806 11.54 16.2932 11.7089C17.5059 11.8778 18.7454 12.237 19.9309 12.7718C21.1163 13.3065 22.247 14.0172 23.2253 14.892C24.2036 15.7669 25.5087 17.0253 26.1982 18.2624C26.7644 19.2783 27.0389 20.3577 27.0506 21.4035C27.0527 21.5982 27.9776 21.675 28.0045 21.115C28.0542 20.0697 27.6646 18.9688 27.0978 17.9589C26.3313 16.5933 24.9958 15.2078 23.9115 14.2384C22.8272 13.2691 21.5717 12.4844 20.2612 11.9001C18.9506 11.3158 17.587 10.9297 16.2517 10.7564C14.9164 10.5832 13.6069 10.6223 12.3795 10.8952C12.0727 10.9634 11.7778 11.0454 11.495 11.1384L11.4948 11.1384Z" fill="#394655"/>
<path d="M14.2402 19.3413C14.327 18.9543 14.7868 18.7036 15.6295 18.7145C16.9095 18.7311 18.6983 19.753 19.7802 20.6142C20.3737 21.0866 21.0148 21.5228 21.4711 22.1494C21.6259 22.3621 21.7719 22.579 21.8176 22.9215C21.5335 22.9419 21.2114 22.6295 20.9839 22.3854C20.0871 21.4231 19.0116 20.6417 17.8017 20.184C16.7836 19.7991 16.5381 19.39 15.5916 19.244C14.9924 19.1515 14.7331 19.3674 14.2402 19.3413V19.3413Z" fill="#394655"/>
<path d="M19.5614 20.3718C19.7036 20.0347 19.5359 20.9912 19.2831 21.1775C18.3344 21.8763 17.4723 22.6995 16.5534 23.4386C16.2541 23.6791 16.031 23.3145 16.2574 23.0281C16.4874 22.7371 16.75 22.5103 17.0294 22.289C17.2914 22.0818 17.6017 21.9421 17.8468 21.7145C18.3179 21.2773 18.5022 20.8159 18.9467 20.3483C19.0991 20.1879 19.4856 20.5513 19.5611 20.3723L19.5614 20.3718Z" fill="#394655"/>
<g opacity="0.06">
<path d="M80.3452 66.3189C76.8913 66.3189 74.0914 63.7262 74.0914 60.528C74.0914 57.3299 76.8913 54.7372 80.3452 54.7372C83.7992 54.7372 86.5991 57.3299 86.5991 60.528C86.5991 63.7262 83.7992 66.3189 80.3452 66.3189Z" fill="black"/>
<path d="M15.463 12.1795C13.6185 12.1598 12.4705 12.4132 11.1143 13.0944C9.71094 13.7992 8.31641 15.3109 7.89613 16.5827C7.26388 18.4959 7.7786 20.7617 9.29384 22.7357C10.1841 23.8956 11.2018 24.5726 13.3634 25.4431C14.2572 25.8031 15.5055 26.4234 16.1376 26.8217C17.7034 27.8085 18.8773 28.3109 19.9096 28.436C20.5843 28.5178 20.7774 28.6144 20.7774 28.8713C20.7774 29.121 20.5807 29.2312 19.9722 29.323C19.5295 29.3898 18.9217 29.3904 18.6213 29.3241C18.078 29.2042 18.0724 29.2107 17.6028 30.636C16.5229 33.9131 15.9799 37.8753 15.9847 42.439C15.9902 47.568 16.4934 50.528 18.6534 58.1311C20.2026 63.5842 20.6469 65.5233 21.0434 68.5637C21.6154 72.9492 21.4097 76.0125 19.9553 84.7442C18.6004 92.8791 18.5183 93.6186 18.5114 97.7754C18.5047 101.774 18.6882 103.333 19.4934 106.122C21.0104 111.378 23.3175 115.675 26.1533 118.526C28.3827 120.767 32.4565 123.079 37.6396 125.045C39.1646 125.623 39.2653 125.639 39.441 125.323C39.9209 124.461 40.3348 124.265 42.0405 124.259C31.2655 114.807 32.435 101.219 34.9309 93.7598C36.9739 87.6542 37.5381 78.3002 37.5381 78.3002C37.5381 78.3002 35.5159 66.3624 33.8731 61.5274C27.5816 43.0093 25.5654 27.829 35.0906 17.2345C36.7183 15.4242 38.6002 14.095 40.5531 13.1196C38.0385 13.6512 35.4549 14.4651 33.1946 15.4513C31.3415 16.2599 27.898 18.2259 27.9036 18.472C27.9061 18.5814 27.9892 19.025 28.0885 19.458C28.311 20.4271 28.0661 21.0146 27.4754 20.9301C27.1447 20.8828 27.0583 20.717 26.9656 19.954C26.7898 18.5062 26.074 17.3227 24.4395 15.7772C21.8617 13.3398 19.6213 12.3563 16.2987 12.2042C16.0041 12.1907 15.7265 12.1824 15.463 12.1795ZM15.8476 18.9275C16.3725 18.9455 16.9602 19.0443 17.4869 19.2201C18.5989 19.5913 20.9289 21.0933 21.4743 21.7902C22.3115 22.8599 21.7666 22.913 20.526 21.8827C20.0399 21.4789 19.5873 21.1488 19.5206 21.1488C19.4539 21.1488 18.744 21.6852 17.9428 22.3409C17.1417 22.9966 16.3834 23.533 16.2579 23.5336C15.7318 23.5355 16.1004 22.9505 17.124 22.1588C18.4173 21.1585 18.7646 20.6504 18.2742 20.4762C18.0941 20.4122 17.4597 20.1586 16.8645 19.9124C16.0254 19.5654 15.605 19.4915 14.9929 19.5837C14.1387 19.7125 13.9283 19.4743 14.5849 19.1211C14.8606 18.9728 15.3228 18.9096 15.8476 18.9275ZM44.7581 126.367C44.7567 126.371 44.7562 126.374 44.7549 126.378L44.5595 127.019L46.1352 127.304C46.1603 127.308 46.1924 127.313 46.2179 127.317C45.7116 127.006 45.2254 126.689 44.7581 126.367Z" fill="black"/>
</g>
<path d="M32.7136 42.7506C32.7941 45.4641 33.4682 48.0827 34.6125 50.5122C35.7568 52.9418 37.3708 55.1831 39.3287 57.1247C41.2866 59.0664 43.5879 60.7083 46.1126 61.9174C48.6372 63.1264 51.3855 63.9018 54.2459 64.0963C57.1063 64.2909 59.8094 63.8835 62.2542 62.9634C64.6991 62.0432 66.8856 60.6107 68.706 58.7743C70.5264 56.938 71.9804 54.698 72.9581 52.1781C73.9359 49.6583 74.437 46.8585 74.3548 43.9153C74.2726 40.9721 73.6156 38.1667 72.5012 35.6344C71.3867 33.1021 69.8153 30.8433 67.9011 28.974C65.9869 27.1048 63.73 25.6252 61.2372 24.6275C58.7444 23.6299 56.0152 23.1134 53.1537 23.1533C50.2921 23.1933 47.5682 23.7829 45.0919 24.7958C42.6156 25.8088 40.3875 27.2458 38.526 29.0052C36.6645 30.7646 35.17 32.847 34.1621 35.1651C33.1541 37.4832 32.6331 40.037 32.7136 42.7506V42.7506Z" fill="#394655"/>
<path d="M34.1218 42.1307C34.1216 44.684 34.6729 47.1893 35.6777 49.5433C36.6825 51.8973 38.1415 54.1 39.9501 56.0191C41.7588 57.9383 43.9171 59.5721 46.3077 60.7729C48.6982 61.9738 51.3201 62.7408 54.0527 62.9344C56.7853 63.1281 59.3695 62.7301 61.703 61.8449C64.0366 60.9598 66.1202 59.5878 67.8559 57.842C69.5916 56.0962 70.9793 53.9765 71.9192 51.6047C72.8591 49.2328 73.3508 46.6089 73.2942 43.8644C73.2375 41.12 72.6381 38.5173 71.6073 36.1752C70.5766 33.833 69.1149 31.7515 67.3313 30.0267C65.5477 28.3019 63.4424 26.9335 61.1167 25.996C58.7909 25.0585 56.244 24.5507 53.5712 24.5369C50.8983 24.5231 48.3515 25.002 46.0302 25.8676C43.7088 26.7332 41.6133 27.9864 39.8499 29.5483C38.0865 31.1102 36.6554 32.9814 35.6644 35.0982C34.6734 37.2149 34.1221 39.5773 34.1218 42.1307Z" fill="white"/>
<path d="M49.0441 48.0373C45.9343 48.0373 43.4132 45.5033 43.4132 42.3776C43.4132 39.2519 45.9343 36.718 49.0441 36.718C52.154 36.718 54.675 39.2519 54.675 42.3776C54.675 45.5033 52.154 48.0373 49.0441 48.0373Z" fill="#C72121"/>
<path d="M51.5366 42.5632C50.0072 42.5632 48.7673 41.317 48.7673 39.7797C48.7673 38.2425 50.0072 36.9963 51.5366 36.9963C53.0661 36.9963 54.3059 38.2425 54.3059 39.7797C54.3059 41.317 53.0661 42.5632 51.5366 42.5632Z" fill="white"/>
<path d="M85.9586 32.8931C85.8726 35.0894 86.2707 37.4305 86.8815 39.837C87.4923 42.2434 88.2958 44.72 89.1106 47.0843C89.9253 49.4485 90.7533 51.6887 91.6596 53.5902C92.5658 55.4917 93.5651 57.0535 94.8107 58.1392C96.0563 59.225 97.4436 59.7396 98.9483 59.7731C100.453 59.8066 102.336 59.9519 103.961 59.0902C105.586 58.2284 107.195 56.9463 108.637 55.2916C110.078 53.6369 111.351 51.6084 112.298 49.2602C113.244 46.912 113.773 44.4676 113.877 42.0677C113.98 39.6678 113.657 37.3135 112.929 35.1369C112.2 32.9603 110.515 30.3276 109.031 28.622C107.547 26.9164 105.711 25.503 103.617 24.4904C101.523 23.4778 99.3732 22.9606 97.3313 22.8833C95.2894 22.8059 93.3552 23.1694 91.6844 23.9271C90.0135 24.6848 88.6068 25.8363 87.612 27.3402C86.6172 28.8442 86.0447 30.6968 85.9586 32.8931V32.8931Z" fill="#394655"/>
<path d="M86.8855 33.0924C86.7446 35.1357 87.0161 37.3426 87.5178 39.6273C88.0194 41.9121 88.7447 44.2758 89.5537 46.5245C90.3627 48.7731 91.2511 50.8954 92.2096 52.689C93.1681 54.4826 94.2041 55.9481 95.4213 56.9657C96.6385 57.9833 97.9372 58.4641 99.3179 58.4956C100.699 58.5272 102.448 58.7014 103.905 57.8953C105.363 57.0892 106.801 55.8908 108.086 54.3456C109.371 52.8004 110.502 50.9075 111.336 48.7188C112.17 46.5302 112.624 44.2543 112.692 42.021C112.759 39.7877 112.439 37.5976 111.751 35.5708C111.062 33.5441 109.446 31.0345 108.068 29.4405C106.69 27.8466 104.995 26.5213 103.068 25.5645C101.142 24.6077 99.1729 24.109 97.3108 24.0153C95.4486 23.9215 93.694 24.233 92.1815 24.907C90.6691 25.581 89.3999 26.6164 88.4878 27.9842C87.5757 29.3519 87.0264 31.0492 86.8855 33.0924V33.0924Z" fill="white"/>
<path d="M107.419 42.2419C105.165 41.6384 103.944 39.1915 104.693 36.7767C105.442 34.3618 107.876 32.8934 110.13 33.4969C112.385 34.1004 113.605 36.5473 112.857 38.9622C112.108 41.3771 109.674 42.8454 107.419 42.2419Z" fill="#C72121"/>
<path d="M109.851 38.3818C108.743 38.0849 108.142 36.8816 108.51 35.6939C108.879 34.5063 110.076 33.7841 111.185 34.0809C112.293 34.3777 112.894 35.5811 112.525 36.7688C112.157 37.9564 110.96 38.6786 109.851 38.3818Z" fill="white"/>
<path d="M83.1498 59.1446L81.3761 59.1678L80.3423 59.1448C80.0126 59.1374 79.7188 59.2947 79.5048 59.5266C79.2907 59.7585 79.1854 60.0796 79.1355 60.4301L78.8533 62.4139L78.4614 64.4049C78.3908 64.7635 78.4848 65.0795 78.6578 65.3096C78.8308 65.5396 79.0962 65.6707 79.409 65.6782L80.4521 65.7031L82.5153 65.6548C82.911 65.6455 83.2786 65.491 83.5482 65.2536C83.8177 65.0162 83.9772 64.6934 84.0093 64.3411L84.1897 62.3655L84.336 60.393C84.3621 60.0419 84.206 59.7274 83.9868 59.5022C83.7676 59.277 83.4694 59.1426 83.1498 59.1446L83.1498 59.1446Z" fill="#2E3436"/>
<path d="M82.826 59.7451L81.3783 59.7647L80.6889 59.7363C80.427 59.7255 80.1852 59.8583 80.0033 60.0481C79.8214 60.2379 79.7152 60.5011 79.6657 60.7882L79.3865 62.4102L79.0369 64.0365C78.9745 64.3268 79.0374 64.5882 79.1732 64.7761C79.3091 64.9639 79.526 65.0656 79.7857 65.076L80.4938 65.1042L82.1333 65.0685C82.4437 65.0618 82.7392 64.9363 82.9615 64.7426C83.1838 64.5488 83.3261 64.2848 83.3625 63.9964L83.5658 62.3809L83.7414 60.7673C83.7728 60.4799 83.6619 60.2221 83.493 60.0376C83.3241 59.8532 83.0873 59.7416 82.826 59.7451L82.826 59.7451Z" fill="white"/>
<path d="M74.7537 57.4624C74.803 58.0984 75.1928 58.6738 75.7468 59.1918C76.3008 59.7099 77.066 60.1691 77.9522 60.5453C78.8384 60.9215 79.838 61.2107 80.8506 61.3653C81.8631 61.5199 82.889 61.537 83.8973 61.4148C84.9056 61.2926 85.8086 61.0494 86.5925 60.7489C87.3764 60.4484 88.035 60.0919 88.5538 59.6964C89.0725 59.3009 89.4561 58.8628 89.6982 58.3739C89.9404 57.8849 90.0409 57.3436 89.953 56.7604C89.8652 56.1771 89.5932 55.6083 89.1732 55.0857C88.7533 54.5631 88.1885 54.0874 87.5251 53.6914C86.8618 53.2955 86.1008 52.9797 85.2609 52.7727C84.4209 52.5656 83.501 52.4672 82.4945 52.5006C81.488 52.534 80.4837 52.695 79.5301 52.9612C78.5765 53.2274 77.6778 53.6005 76.9287 54.0561C76.1796 54.5118 75.564 55.0368 75.2047 55.6294C74.8366 56.2365 74.7116 56.9206 74.7537 57.4624V57.4624Z" fill="#394655"/>
<path d="M76.8846 57.3196C76.971 57.8248 77.265 58.2966 77.7165 58.7193C78.168 59.142 78.7765 59.5165 79.4678 59.8153C80.1592 60.1141 80.9301 60.335 81.7162 60.451C82.5022 60.5671 83.3042 60.5778 84.0928 60.481C84.8813 60.3843 85.5856 60.1927 86.1967 59.9478C86.8078 59.7029 87.3235 59.4051 87.728 59.0728C88.1325 58.7404 88.4269 58.3723 88.6005 57.9713C88.774 57.5703 88.8274 57.1355 88.7369 56.6748C88.6465 56.2142 88.4196 55.7718 88.0847 55.3681C87.7498 54.9643 87.3077 54.5999 86.7869 54.2983C86.2661 53.9967 85.6672 53.758 85.0069 53.6036C84.3467 53.4493 83.6248 53.3792 82.8433 53.4117C82.0618 53.4443 81.2908 53.5759 80.5626 53.7874C79.8344 53.9988 79.15 54.2906 78.5719 54.6446C77.9939 54.9985 77.5247 55.4147 77.2258 55.8689C76.9269 56.3231 76.7982 56.8145 76.8846 57.3196V57.3196Z" fill="#E1D0CB"/>
<path d="M79.6806 54.2367C79.8066 54.5987 80.0806 54.9201 80.4597 55.1914C80.8387 55.4628 81.3214 55.6844 81.845 55.8544C82.3687 56.0244 82.9312 56.1432 83.4817 56.2065C84.0321 56.2697 84.5705 56.2771 85.075 56.221C85.5795 56.165 86.0053 56.051 86.3656 55.8922C86.726 55.7335 87.0209 55.5301 87.2532 55.2907C87.4856 55.0512 87.6557 54.7754 87.7544 54.4698C87.8532 54.1642 87.8804 53.8285 87.8134 53.4738C87.7464 53.119 87.5903 52.779 87.354 52.4717C87.1177 52.1644 86.8016 51.89 86.4195 51.6675C86.0373 51.4449 85.5892 51.2743 85.0915 51.1729C84.5938 51.0716 84.0464 51.0396 83.4694 51.0915C82.8923 51.1433 82.3402 51.2738 81.841 51.4638C81.3418 51.6537 80.8955 51.9031 80.5341 52.1923C80.1728 52.4815 79.8965 52.8107 79.7418 53.159C79.5871 53.5073 79.5546 53.8747 79.6806 54.2367V54.2367Z" fill="#394655"/>
</g>
<path d="M166.84 66.3213C166.379 66.9577 165.861 67.3916 165.286 67.623C164.71 67.7965 164.192 67.8833 163.731 67.8833C162.925 67.8254 162.177 67.5651 161.486 67.1023C160.795 66.5816 160.363 66.061 160.191 65.5403C159.845 64.5569 159.471 63.4577 159.068 62.2428C158.665 61.028 158.262 59.8131 157.859 58.5982C157.514 57.3255 157.14 56.1107 156.737 54.9536C156.334 53.7388 155.96 52.6396 155.614 51.6562C154.463 53.6809 153.369 55.7346 152.333 57.8173C151.296 59.842 150.145 61.9536 148.879 64.1519C148.303 65.0197 147.641 65.6271 146.893 65.9742C146.144 66.2635 145.511 66.3792 144.993 66.3213C144.244 66.2635 143.554 65.9742 142.92 65.4536C142.345 64.9329 141.884 64.4412 141.539 63.9784C140.905 62.937 140.272 61.6065 139.639 59.9867C139.006 58.309 138.401 56.5735 137.826 54.7801C137.307 52.9289 136.818 51.1066 136.358 49.3132C135.897 47.462 135.523 45.8132 135.235 44.367C135.062 43.3835 135.062 42.4579 135.235 41.5901C135.465 40.7224 135.983 40.2306 136.789 40.1149C137.768 40.0571 138.66 40.4042 139.466 41.1562C140.272 41.8504 140.733 42.5447 140.848 43.2389C141.078 44.3959 141.337 45.6686 141.625 47.057C141.97 48.3876 142.316 49.7471 142.661 51.1355C143.064 52.5239 143.438 53.8834 143.784 55.214C144.187 56.5445 144.59 57.7305 144.993 58.7718C145.856 57.3834 146.806 55.7925 147.842 53.9991C148.936 52.1479 149.972 50.3834 150.951 48.7058C151.93 46.9702 152.822 45.4661 153.628 44.1934C154.434 42.9207 155.067 42.1397 155.528 41.8504C155.873 41.619 156.362 41.648 156.996 41.9372C157.629 42.1686 158.09 42.5157 158.377 42.9785C159.644 45.524 160.68 48.3297 161.486 51.3958C162.35 54.4041 163.184 57.2098 163.99 59.8131C164.796 58.7718 165.66 57.4123 166.581 55.7346C167.502 53.9991 168.394 52.1768 169.258 50.2677C170.121 48.3587 170.927 46.4496 171.676 44.5405C172.424 42.6314 173.028 40.9248 173.489 39.4207C173.95 37.8587 174.583 37.1067 175.389 37.1645C176.425 37.2802 177.317 37.6273 178.066 38.2059C178.814 38.7844 179.102 39.3918 178.929 40.0281C177.663 45.119 176.022 49.8049 174.007 54.0859C171.992 58.309 169.603 62.3875 166.84 66.3213Z" fill="#C72121"/>
<path d="M210.565 60.1602C211.659 61.4908 212.292 62.7056 212.465 63.8048C212.638 64.8461 212.206 65.5982 211.17 66.061C210.939 66.1767 210.594 66.2056 210.133 66.1478C209.73 66.0321 209.27 65.8874 208.752 65.7139C208.291 65.4825 207.831 65.2222 207.37 64.9329C206.91 64.6436 206.535 64.3544 206.248 64.0651C204.981 62.6189 203.715 61.1726 202.448 59.7263C201.239 58.2801 199.973 56.8338 198.649 55.3875L189.236 65.0197C188.257 65.8296 187.365 66.1767 186.559 66.061C185.753 65.8874 185.35 65.4536 185.35 64.7593C185.35 63.6602 185.523 62.6478 185.868 61.7222C186.271 60.7387 186.789 59.8131 187.423 58.9453C188.574 57.5569 189.754 56.1974 190.963 54.8669C192.172 53.5363 193.381 52.2057 194.59 50.8752C193.093 49.3132 191.568 47.7802 190.013 46.276C188.517 44.7141 186.962 43.181 185.35 41.6769C184.659 41.6769 184.199 41.5612 183.969 41.3298C183.738 41.0984 183.594 40.8381 183.537 40.5488C183.537 40.2017 183.594 39.8835 183.71 39.5943C183.825 39.305 183.94 39.1025 184.055 38.9868C185.091 37.9455 186.127 37.4538 187.164 37.5116C188.2 37.5116 189.236 37.8298 190.272 38.4662C193.323 40.8959 196.173 43.5281 198.821 46.3628C201.124 43.9331 203.484 41.5612 205.902 39.2472C206.65 38.7844 207.456 38.4951 208.32 38.3794C209.183 38.2637 210.133 38.4662 211.17 38.9868C211.688 39.6232 211.832 40.3753 211.601 41.243C211.429 42.0529 210.968 42.8628 210.22 43.6727L203.052 50.9619C204.377 52.4661 205.672 53.9991 206.938 55.5611C208.205 57.123 209.414 58.6561 210.565 60.1602Z" fill="#C72121"/>
<path d="M13.866 77L110.597 85.8867L105.32 98.5724L15.2783 86.9814L13.866 77Z" fill="#C72121"/>
<defs>
<clipPath id="clip0_9_6">
<rect width="118.924" height="86.0149" fill="white"/>
</clipPath>
</defs>
</svg>
